<?xml version="1.0" encoding="UTF-8" standalone="no"?><!-- Generator: Gravit.io --><svg xmlns="http://www.w3.org/2000/svg" xmlns:xlink="http://www.w3.org/1999/xlink" style="isolation:isolate" viewBox="0 0 182 183.5" width="182pt" height="183.5pt"><defs><clipPath id="_clipPath_t3tND9SrC8z0Z7NJvnLKcC0AY0mpgFVh"><rect width="182" height="183.5"/></clipPath></defs><g clip-path="url(#_clipPath_t3tND9SrC8z0Z7NJvnLKcC0AY0mpgFVh)"><path d=" M 130.689 96.87 C 158.487 99.654 177.5 105.275 177.5 111.75 C 177.5 120.995 138.741 128.5 91 128.5 C 43.259 128.5 4.5 120.995 4.5 111.75 C 4.5 104.819 26.289 98.865 57.444 96.367" fill="none" vector-effect="non-scaling-stroke" stroke-width="3" stroke="rgb(0,0,0)" stroke-linejoin="miter" stroke-linecap="square" stroke-miterlimit="3"/><mask id="_mask_QQb5APF187QiHyDI2C3s0Gu9dgO4zvii"><path d=" M 4.819 112.196 L 3.5 112.207 C 3.5 153.174 46.934 183.5 90.884 183.5 C 135.361 183.5 178.5 152.327 178.5 110.75 L 177.5 110.758 C 177.477 119.999 138.726 127.5 91 127.5 C 45.776 127.5 8.611 120.765 4.819 112.196 Z " fill-rule="evenodd" fill="white" stroke="none"/></mask><path d=" M 4.819 112.196 L 3.5 112.207 C 3.5 153.174 46.934 183.5 90.884 183.5 C 135.361 183.5 178.5 152.327 178.5 110.75 L 177.5 110.758 C 177.477 119.999 138.726 127.5 91 127.5 C 45.776 127.5 8.611 120.765 4.819 112.196 Z " fill-rule="evenodd" fill="rgb(0,0,0)"/><path d=" M 4.819 112.196 L 3.5 112.207 C 3.5 153.174 46.934 183.5 90.884 183.5 C 135.361 183.5 178.5 152.327 178.5 110.75 L 177.5 110.758 C 177.477 119.999 138.726 127.5 91 127.5 C 45.776 127.5 8.611 120.765 4.819 112.196 Z " fill-rule="evenodd" fill="rgb(0,0,0)" mask="url(#_mask_QQb5APF187QiHyDI2C3s0Gu9dgO4zvii)" vector-effect="non-scaling-stroke" stroke-width="6" stroke="rgb(0,0,0)" stroke-linejoin="miter" stroke-linecap="square" stroke-miterlimit="3"/><path d=" M 109.5 115.75 Q 85.282 105.83 85.5 82.716 C 85.718 59.603 101.983 65.923 106.5 46.143 C 111.017 26.364 104.994 20.914 95.5 10.75" fill="none" vector-effect="non-scaling-stroke" stroke-width="6" stroke="rgb(0,0,0)" stroke-linejoin="miter" stroke-linecap="square" stroke-miterlimit="3"/><path d=" M 128.502 106 Q 109.329 96.552 109.502 74.539 C 109.674 52.527 122.55 58.546 126.127 39.708 C 129.703 20.87 124.935 15.68 117.418 6" fill="none" vector-effect="non-scaling-stroke" stroke-width="4" stroke="rgb(0,0,0)" stroke-linejoin="miter" stroke-linecap="square" stroke-miterlimit="3"/><path d=" M 80.5 110.75 Q 61.327 101.302 61.5 79.289 C 61.672 57.277 74.549 63.296 78.125 44.458 C 81.701 25.62 76.933 20.43 69.416 10.75" fill="none" vector-effect="non-scaling-stroke" stroke-width="4" stroke="rgb(0,0,0)" stroke-linejoin="miter" stroke-linecap="square" stroke-miterlimit="3"/></g></svg>